# xmcd
# 
# Track frame offsets:
#     150
#     21530
#     39498
#     56844
#     76572
#     91736
#     105209
#     121830
#     138376
#     153575
#     168499
#     185379
# 
# Disc length: 2654
# 
# Revision: 0
# Processed by: cddbd v1.5.2PL0 Copyright (c) Steve Scherf et al.
# Submitted via: fre:ac v1.0.17
# 
DISCID=8d0a5c0c
DTITLE=Donnie Fritts - Oh My Goodness
DYEAR=2015
DGENRE=Blues
TTITLE0=Errol Flynn
TTITLE1=If It's Really Gotta Be This Way
TTITLE2=Memphis Women n Chicken
TTITLE3=The Oldest Baby In the World
TTITLE4=Tuscaloosa 1962
TTITLE5=Them Old Love Songs
TTITLE6=Foolish Heart
TTITLE7=Lay It Down
TTITLE8=Good As New
TTITLE9=Temporarily Forever Mine
TTITLE10=Choo Choo Train
TTITLE11=Oh My Goodness
EXTD=Produced by JP White and B Tanner\nSingle Lock Records
EXTT0=G Hunt/A McBroom
EXTT1=D Fritts/G Nicholson/A Alexander
EXTT2=D Fritts/D Penn/G Nicholson
EXTT3=D Fritts/J Prine
EXTT4=D Fritts
EXTT5=D Fritts/T Seals
EXTT6=J Winchester
EXTT7=G Thomas
EXTT8=D Fritts
EXTT9=B Maddox/P Thorn
EXTT10=D Fritts
EXTT11=D Fritts/S Oldham
PLAYORDER=
